<?xml version="1.0" encoding="UTF-8"?>
<svg xmlns="http://www.w3.org/2000/svg" viewBox="0 0 600 250">
  <defs>
    <style>
      .cls-1 {
        fill: #29abe2;
      }

      .cls-2 {
        fill: #fff;
      }

      .cls-3, .cls-4 {
        fill: #9bdbf5;
      }

      .cls-4, .cls-5 {
        stroke: #9bdbf5;
        stroke-miterlimit: 10;
      }

      .cls-5 {
        fill: none;
        stroke-linecap: round;
        stroke-width: 9px;
      }
    </style>
  </defs>
  <g id="_Layer_" data-name="&amp;lt;Layer&amp;gt;">
    <g>
      <circle class="cls-3" cx="98.39" cy="53.52" r="6.68"/>
      <path class="cls-5" d="M452.38,46.84c-5.8-4.39-16.55-11.41-32.5-15.98-14.02-4.02-26.36-4.52-34.06-4.36"/>
      <path class="cls-3" d="M495.19,36.72v-.12c.6-6.55,5.57-11.86,12.07-12.88h0c1.37-.22,1.37-2.18,0-2.4h0c-6.5-1.02-11.46-6.33-12.06-12.88v-.12c-.14-1.47-2.29-1.47-2.43,0v.12c-.6,6.55-5.57,11.86-12.07,12.88h0c-1.37.22-1.37,2.18,0,2.4h0c6.5,1.02,11.46,6.33,12.06,12.88v.12c.14,1.47,2.29,1.47,2.43,0Z"/>
      <path class="cls-5" d="M181.26,189.24c6.94,4.39,19.8,11.41,38.89,15.98,16.77,4.02,31.54,4.52,40.75,4.36"/>
      <path class="cls-3" d="M124.33,188.18l-.45,4.56c-.65,6.57-5.7,11.85-12.23,12.79l-3.69.53c-1.39.2-1.39,2.2,0,2.4l3.69.53c6.53.94,11.58,6.22,12.23,12.79l.45,4.56c.14,1.46,2.27,1.46,2.41,0l.45-4.56c.65-6.57,5.7-11.85,12.23-12.79l3.69-.53c1.39-.2,1.39-2.2,0-2.4l-3.69-.53c-6.53-.94-11.58-6.22-12.23-12.79l-.45-4.56c-.14-1.46-2.27-1.46-2.41,0Z"/>
      <circle class="cls-3" cx="415.05" cy="196.36" r="9.11"/>
      <circle class="cls-3" cx="464.44" cy="184.9" r="6.06"/>
    </g>
  </g>
  <g id="Layer_1-2" data-name="Layer 1">
    <g>
      <g>
        <path class="cls-1" d="M230.7,137.84l.24-.67c.37-1.02.55-1.97.55-2.92,0-1.59-.25-2.84-.73-3.72-.44-.8-1-1.18-1.77-1.18h-3.33v-11.88c0-2.27-.33-4.28-.98-5.98l-.26-.68h11.44l-.06.55c-.03.33-.06.67-.06,1,0,4.47,1.69,4.47,2.24,4.47h2.58v21.01h-9.88Z"/>
        <path class="cls-3" d="M235.31,111.32c-.04.35-.06.7-.06,1.05,0,3.31.91,4.97,2.74,4.97h2.08v20.01h-8.66c.37-1.02.58-2.05.58-3.09,0-1.68-.26-3-.79-3.96-.53-.96-1.26-1.44-2.2-1.44h-2.83v-11.38c0-2.37-.35-4.42-1.02-6.16h10.15M236.42,110.32h-12.72l.52,1.36c.63,1.64.95,3.59.95,5.8v12.38h3.83c.38,0,.88.1,1.33.92.44.81.67,1.98.67,3.48,0,.89-.17,1.79-.52,2.75l-.49,1.34h11.09v-22.01h-3.08c-.43,0-1.74,0-1.74-3.97,0-.29.02-.6.05-.94l.11-1.1h0Z"/>
      </g>
      <g>
        <path class="cls-1" d="M274.49,137.84v-20.2l.22-.15c1.65-1.12,2.99-1.67,4.11-1.67,1.48,0,3.24.71,3.24,4.1v17.92h-7.57Z"/>
        <path class="cls-3" d="M278.82,116.32c1.83,0,2.74,1.2,2.74,3.6v17.42h-6.57v-19.43c1.55-1.06,2.83-1.58,3.82-1.58M278.82,115.32c-1.21,0-2.65.57-4.39,1.76l-.44.3v20.96h8.57v-18.42c0-4-2.35-4.6-3.74-4.6h0Z"/>
      </g>
      <g>
        <path class="cls-1" d="M253.79,137.84v-20.2l.22-.15c1.65-1.12,2.97-1.67,4.02-1.67,1.48,0,3.24.71,3.24,4.1v17.92h-7.49Z"/>
        <path class="cls-3" d="M258.03,116.32c1.83,0,2.74,1.2,2.74,3.6v17.42h-6.49v-19.43c1.55-1.06,2.8-1.58,3.74-1.58M258.03,115.32c-1.16,0-2.57.57-4.3,1.76l-.44.3v20.96h8.49v-18.42c0-4-2.35-4.6-3.74-4.6h0Z"/>
      </g>
      <g>
        <path class="cls-1" d="M295.28,137.84v-18.71c0-3.01-.47-5.57-1.39-7.61l-.32-.71h10.29v27.02h-8.59Z"/>
        <path class="cls-3" d="M303.37,111.32v26.02h-7.59v-18.21c0-3.11-.48-5.71-1.43-7.81h9.02M304.37,110.32h-11.57l.64,1.41c.89,1.98,1.34,4.47,1.34,7.4v19.21h9.59v-28.02h0Z"/>
      </g>
      <g>
        <path class="cls-1" d="M344.7,137.84v-20.2l.21-.15c.31-.22.95-.52,2.01-.95,1.07-.44,1.89-.65,2.52-.65,1.56,0,3.41.71,3.41,4.1v17.85h-8.15Z"/>
        <path class="cls-3" d="M349.44,116.4c1.94,0,2.91,1.2,2.91,3.6v17.35h-7.15v-19.43c.28-.19.91-.49,1.91-.9,1-.41,1.77-.61,2.33-.61M349.44,115.4c-.69,0-1.58.22-2.71.69-1.42.58-1.87.84-2.1,1l-.43.3v20.96h9.15v-18.35c0-4-2.45-4.6-3.91-4.6h0Z"/>
      </g>
      <g>
        <path class="cls-1" d="M318.08,137.84v-27.02h8.28l-.06.55c-.03.33-.05.66-.05,1,0,.6.05,1.2.16,1.78.58,2.76,1.9,2.76,2.33,2.76h2.66v20.94h-13.32Z"/>
        <path class="cls-3" d="M325.81,111.32c-.04.35-.06.7-.06,1.05,0,.62.05,1.25.17,1.87.44,2.11,1.38,3.17,2.83,3.17h2.16v19.94h-12.32v-26.02h7.22M326.92,110.32h-9.33v28.02h14.32v-21.94h-3.16c-.37,0-1.35,0-1.85-2.37-.09-.53-.14-1.1-.14-1.67,0-.3.02-.6.05-.94l.12-1.1h0Z"/>
      </g>
      <g>
        <path class="cls-1" d="M109.75,137.84l.18-.63c.09-.33.13-.64.13-.98,0-1.31-.64-2.98-1.92-4.95-.21-.34-.35-.55-.44-.68-3.45,1.47-7.13,2.21-10.94,2.21-1.88,0-3.29-.29-4.29-.9-1.07-.64-1.61-1.79-1.61-3.42v-.5h6.24c10.07,0,14.96-3.65,14.96-11.16,0-1.89-.49-3.66-1.44-5.25l-.45-.76h10.01l-.06.55c-.04.33-.06.66-.06.99,0,.6.05,1.2.16,1.78.58,2.76,1.9,2.76,2.33,2.76h2.66v20.94h-15.46Z"/>
        <path class="cls-3" d="M119.62,111.32c-.04.35-.06.7-.06,1.05,0,.62.05,1.25.17,1.87.44,2.11,1.38,3.17,2.83,3.17h2.16v19.94h-14.3c.09-.33.15-.69.15-1.11,0-1.42-.67-3.16-2-5.22-.42-.68-.66-1.01-.74-1.01,0,0,0,0-.01,0-3.49,1.54-7.18,2.3-11.06,2.3-1.77,0-3.12-.28-4.03-.83s-1.37-1.55-1.37-2.99h5.74c10.31,0,15.46-3.89,15.46-11.66,0-2.01-.52-3.85-1.51-5.51h8.57M120.73,110.32h-11.45l.91,1.51c.91,1.52,1.37,3.2,1.37,5,0,7.18-4.73,10.66-14.46,10.66h-6.74v1c0,1.81.62,3.1,1.85,3.84,1.08.65,2.57.97,4.55.97,3.74,0,7.36-.7,10.75-2.09.06.09.12.19.2.32,1.23,1.91,1.85,3.48,1.85,4.69,0,.29-.04.56-.12.84l-.35,1.27h16.62v-21.94h-3.16c-.37,0-1.35,0-1.85-2.37-.09-.53-.14-1.1-.14-1.67,0-.3.02-.6.05-.94l.12-1.1h0Z"/>
      </g>
      <g>
        <path class="cls-1" d="M48.89,130.94c-.91,0-1.8-.16-2.63-.46l-.33-.12v-14.38l.24-.15c.96-.57,1.97-.86,3-.86,3.42,0,5.16,2.66,5.16,7.92,0,3.72-.84,6.05-2.56,7.12-.96.62-1.93.94-2.88.94Z"/>
        <path class="cls-3" d="M49.18,115.46c3.1,0,4.66,2.47,4.66,7.42,0,3.5-.78,5.74-2.33,6.7-.89.58-1.76.86-2.62.86s-1.68-.14-2.45-.43v-13.75c.89-.53,1.8-.79,2.74-.79M49.18,114.46c-1.12,0-2.21.31-3.26.93l-.49.29v15.02l.65.24c.89.33,1.83.5,2.8.5,1.05,0,2.12-.35,3.16-1.03,1.87-1.16,2.78-3.62,2.78-7.54,0-6.96-3.08-8.42-5.66-8.42h0Z"/>
      </g>
      <g>
        <path class="cls-1" d="M90.86,121.14v-2.73c0-1.22.45-2.17,1.33-2.81.83-.61,1.84-.93,3-.93,3.23,0,3.91,1.92,3.91,3.52,0,1.9-1.15,2.95-3.24,2.95h-4.99Z"/>
        <path class="cls-3" d="M95.18,115.17c2.27,0,3.41,1.01,3.41,3.02,0,1.63-.91,2.45-2.74,2.45h-4.49v-2.23c0-1.05.37-1.86,1.12-2.41.75-.55,1.65-.83,2.7-.83M95.18,114.17c-1.27,0-2.37.34-3.3,1.02-1,.74-1.53,1.85-1.53,3.22v3.23h5.49c2.38,0,3.74-1.26,3.74-3.45,0-2.56-1.61-4.02-4.41-4.02h0Z"/>
      </g>
      <g>
        <path class="cls-1" d="M183.5,137.84v-27.02h14l.12.33c.35.93.88,1.98,1.6,3.11,3.74-.73,6.67-1.1,8.74-1.1,1.87,0,3.01.2,3.59.64.61.46.9,1.38.9,2.81v1.22h-5.07c-10.57,0-15.71,3.68-15.71,11.24,0,2.98,1.15,5.65,3.42,7.92l.85.85h-12.43Z"/>
        <path class="cls-3" d="M197.16,111.32c.39,1.04.99,2.2,1.83,3.49,3.88-.77,6.87-1.15,8.98-1.15,1.72,0,2.81.18,3.28.54.47.36.71,1.16.71,2.41v.72h-4.57c-10.81,0-16.21,3.91-16.21,11.74,0,3.15,1.2,5.9,3.57,8.27h-10.73v-26.02h13.15M197.85,110.32h-14.85v28.02h14.14l-1.7-1.71c-2.2-2.2-3.27-4.68-3.27-7.57,0-7.22,4.98-10.74,15.21-10.74h5.57v-1.72c0-1.59-.36-2.64-1.1-3.21-.68-.52-1.88-.75-3.89-.75s-4.89.35-8.5,1.04c-.61-.99-1.07-1.91-1.37-2.73l-.24-.65h0Z"/>
      </g>
      <g>
        <path class="cls-1" d="M138.51,137.84v-20.2l.21-.15c.31-.21.95-.52,2.01-.95,1.07-.44,1.89-.65,2.52-.65,1.56,0,3.41.71,3.41,4.1v17.85h-8.15Z"/>
        <path class="cls-3" d="M143.25,116.4c1.94,0,2.91,1.2,2.91,3.6v17.35h-7.15v-19.43c.28-.19.91-.49,1.91-.9,1-.41,1.77-.61,2.33-.61M143.25,115.4c-.69,0-1.58.22-2.71.69-1.42.58-1.87.84-2.1,1l-.43.3v20.96h9.15v-18.35c0-4-2.45-4.6-3.91-4.6h0Z"/>
      </g>
      <g>
        <path class="cls-1" d="M61.19,137.84l1.16-.95c.31-.26.63-.52.92-.8,3.46-3.37,5.21-8.25,5.21-14.51,0-4.05-.75-7.42-2.23-10.02l-.43-.75h15l-.63.81c-2.46,3.14-3.71,7.09-3.71,11.72,0,5.56,1.84,9.96,5.48,13.08.13.12.27.22.41.33l1.38,1.09h-22.56Z"/>
        <path class="cls-3" d="M79.79,111.32c-2.53,3.23-3.82,7.24-3.82,12.03,0,5.74,1.88,10.22,5.65,13.46.22.19.45.35.68.53h-19.73c.35-.29.7-.58,1.03-.89,3.57-3.48,5.36-8.44,5.36-14.87,0-4.18-.77-7.59-2.29-10.26h13.11M81.85,110.32h-16.88l.85,1.49c1.43,2.52,2.16,5.8,2.16,9.77,0,6.12-1.7,10.88-5.06,14.15-.28.27-.59.53-.92.8l-.05.04-2.16,1.77h25.41l-2.26-1.79c-.09-.07-.17-.13-.26-.2-.13-.1-.26-.2-.39-.31-3.57-3.07-5.31-7.22-5.31-12.71,0-4.52,1.21-8.36,3.6-11.41l1.27-1.62h0Z"/>
      </g>
      <g>
        <path class="cls-1" d="M209.17,131.8c-1.14,0-2.1-.32-2.85-.94-.78-.65-1.18-1.59-1.18-2.8,0-1.77.78-3.88,4.49-3.88h2.83v6.27l-.17.15c-.92.8-1.97,1.2-3.11,1.2Z"/>
        <path class="cls-3" d="M211.95,124.68v5.54c-.83.72-1.76,1.08-2.79,1.08s-1.87-.28-2.54-.83c-.67-.55-1-1.36-1-2.41,0-2.26,1.33-3.38,3.99-3.38h2.33M212.95,123.68h-3.33c-4.34,0-4.99,2.75-4.99,4.38,0,1.36.46,2.43,1.36,3.18.84.7,1.91,1.06,3.17,1.06s2.43-.45,3.44-1.32l.35-.3v-7h0Z"/>
      </g>
      <g>
        <path class="cls-1" d="M159.88,137.84v-18.64c0-3.1-.41-5.69-1.21-7.7l-.27-.69h11.06v27.02h-9.57Z"/>
        <path class="cls-3" d="M168.96,111.32v26.02h-8.57v-18.14c0-3.18-.42-5.81-1.25-7.89h9.82M169.96,110.32h-12.3l.55,1.37c.78,1.95,1.18,4.48,1.18,7.52v19.14h10.57v-28.02h0Z"/>
      </g>
      <g>
        <path class="cls-2" d="M153.27,145.17c-5.46,0-10.61,0-10.61-4.36v-20.72s-.1.04-.15.06v20.88c0,1.58-.82,3.54-4.7,3.87-1.11.09-2.67.14-4.78.14-2.97-.08-5.09-.18-6.57-.32-1.57-.15-5.25-.5-5.25-3.97v-19.98c-1.72-.38-4.05-1.68-4.92-5.8,0-.03-.01-.07-.02-.1-.15-.82-.22-1.66-.22-2.49,0-.46.03-.92.08-1.42.16-1.51.57-3.01,1.22-4.48,1.61-3.4,4.38-5.24,7.85-5.24,2.67,0,5.11.57,7.27,1.69.79.41,1.5.84,2.12,1.28,3.54-1.97,7.58-2.97,12.06-2.97,5.79,0,10.17,1.5,13,4.46,1.13,1.18,2.04,2.63,2.72,4.32,1.01,2.52,1.5,5.53,1.5,9.19v21.6c0,4.36-5.15,4.36-10.61,4.36Z"/>
        <path class="cls-3" d="M146.66,104.73c4.82,0,8.31,1.13,10.48,3.38.82.86,1.49,1.93,2,3.2.83,2.08,1.25,4.7,1.25,7.89v21.6c0,.58-2.37.86-7.11.86s-7.11-.29-7.11-.86v-20.81c0-2.4-.97-3.6-2.91-3.6-.55,0-1.33.2-2.33.61-1,.41-1.64.71-1.91.9v23.11c0,.34-2,.5-5.99.5-5.54-.14-8.31-.41-8.31-.79v-23.33h-2.16c-1.44,0-2.38-1.06-2.83-3.17-.11-.62-.17-1.25-.17-1.87,0-.35.02-.7.06-1.05.12-1.14.43-2.28.94-3.42,1-2.11,2.55-3.17,4.66-3.17s3.99.43,5.65,1.3c1.66.86,2.77,1.73,3.33,2.59,3.49-2.59,7.65-3.89,12.47-3.89M146.66,97.73c-4.32,0-8.3.82-11.88,2.46-.22-.12-.45-.25-.69-.37-2.66-1.38-5.65-2.09-8.88-2.09-4.83,0-8.83,2.62-10.99,7.18-.02.04-.04.09-.06.13-.81,1.8-1.31,3.67-1.51,5.55-.06.62-.1,1.2-.1,1.77,0,1.04.09,2.09.28,3.11.01.07.03.14.04.2.79,3.76,2.66,6.1,4.84,7.41v17.65c0,2.84,1.83,6.12,5.93,7.08.67.16,1.46.27,2.49.37,1.56.15,3.75.26,6.72.34.06,0,.12,0,.18,0,2.21,0,3.87-.05,5.08-.15,1.99-.17,3.48-.68,4.6-1.37,1.09.66,2.52,1.17,4.39,1.4,1.48.18,3.5.27,6.18.27s4.7-.09,6.18-.27c7.55-.92,7.93-6.49,7.93-7.6v-21.6c0-4.11-.57-7.54-1.75-10.48-.84-2.11-2-3.94-3.44-5.45-3.52-3.68-8.75-5.54-15.53-5.54h0Z"/>
      </g>
      <g>
        <path class="cls-2" d="M176.48,105.47c-2.61,0-4.52-.04-5.86-.12-1.41-.09-5.16-.32-5.16-3.85v-11.32c0-4.29,4.87-4.29,11.02-4.29,2.61,0,4.52.04,5.86.12,1.41.09,5.16.32,5.16,3.85v11.55c0,3.53-3.86,3.81-5.13,3.9-1.35.1-3.28.15-5.9.15Z"/>
        <path class="cls-3" d="M176.48,89.4c5.02,0,7.53.16,7.53.47v11.55c0,.37-2.51.55-7.53.55s-7.52-.16-7.52-.47v-11.32c0-.52,2.51-.79,7.52-.79M176.48,82.4c-2.78,0-4.86.08-6.37.23-7.57.79-8.15,5.98-8.15,7.55v11.32c0,2.95,1.91,6.28,6.18,7.09.61.11,1.33.2,2.27.25,1.41.09,3.4.13,6.08.13s4.72-.05,6.15-.16c.98-.07,1.75-.17,2.4-.32,4.12-.9,5.97-4.21,5.97-7.08v-11.55c0-2.95-1.91-6.28-6.18-7.09-.61-.11-1.33-.2-2.27-.25-1.41-.09-3.4-.13-6.08-.13h0Z"/>
      </g>
      <g>
        <path class="cls-2" d="M166.13,164.1c-12.38,0-14.23-6.62-14.23-10.57,0-2.14.42-4.01,1.24-5.56.61-1.16,1.81-1.87,3.09-1.87.12,0,.25,0,.37.02.26.03.76.06,1.71.06,4.62,0,5.96-.88,6.18-1.05.26-.21.96-.76.96-2.76v-36.23c0-3.52,3.75-3.76,5.16-3.85,1.34-.08,3.25-.12,5.86-.12s4.5.03,5.83.1c1.42.07,5.2.27,5.2,3.79v41.89c0,5.03-2.31,9.23-6.67,12.14-3.98,2.66-8.93,4.01-14.71,4.01Z"/>
        <path class="cls-3" d="M176.48,105.67c5.02,0,7.53.13,7.53.39v41.89c0,3.88-1.71,6.96-5.11,9.23-3.41,2.28-7.66,3.42-12.76,3.42-7.15,0-10.73-2.36-10.73-7.07,0-1.57.28-2.88.83-3.93.5.05,1.19.08,2.08.08,4.05,0,6.83-.6,8.36-1.81,1.52-1.21,2.29-3.04,2.29-5.5v-36.23c0-.31,2.51-.47,7.52-.47M176.48,98.67c-2.68,0-4.67.04-6.08.13-.94.06-1.66.14-2.27.25-4.27.8-6.18,4.14-6.18,7.09v36.25c-.62.13-1.75.29-3.64.29-.91,0-1.29-.03-1.35-.04-.24-.03-.49-.04-.73-.04-2.58,0-4.97,1.42-6.19,3.73-1.09,2.06-1.64,4.48-1.64,7.2,0,3.3,1.28,14.07,17.73,14.07,6.48,0,12.09-1.55,16.65-4.6,5.38-3.6,8.22-8.8,8.22-15.05v-41.89c0-2.93-2-6.4-6.39-7.09-.56-.09-1.24-.15-2.13-.2-1.39-.07-3.35-.11-6.01-.11h0Z"/>
      </g>
      <g>
        <path class="cls-2" d="M226.59,145.17c-3.73,0-6.86-.93-9.29-2.76-.06-.04-.12-.08-.17-.12-3.01,1.91-6.88,2.88-11.57,2.88-4.92,0-9.15-1.56-12.57-4.64-.21-.19-.4-.38-.6-.58l-.13-.13c-3.05-3.05-4.59-6.67-4.59-10.75s1.26-9.89,7.94-13.05c-.76-1.24-1.33-2.38-1.74-3.49-.49-1.31-.72-2.48-.72-3.59,0-3.93,2.17-5.51,3.46-6.1.07-.03.14-.06.21-.09,3.59-1.36,8.26-2.03,14.25-2.03,6.53,0,11.15,1.42,14.13,4.35,1.38,1.35,2.45,3.03,3.21,4.98.83,2.16,1.25,4.65,1.25,7.42v7.91c1.93.22,3.58,1.36,4.6,3.22.82,1.5,1.22,3.35,1.22,5.65,0,1.4-.27,2.85-.79,4.29-.33.91-.71,1.72-1.16,2.47-1.59,2.68-4.06,4.16-6.96,4.16Z"/>
        <path class="cls-3" d="M211.08,104.23c5.51,0,9.41,1.12,11.68,3.35,1.04,1.02,1.83,2.28,2.39,3.74.67,1.74,1.02,3.79,1.02,6.16v11.38h2.83c.94,0,1.68.48,2.2,1.44.53.96.79,2.28.79,3.96,0,1.04-.21,2.07-.58,3.09-.23.63-.51,1.26-.88,1.88-.97,1.63-2.29,2.45-3.95,2.45-2.99,0-5.4-.7-7.23-2.09-.83-.58-1.47-1.27-1.91-2.09-2.55,2.78-6.51,4.18-11.89,4.18-4.05,0-7.46-1.25-10.23-3.74-.21-.19-.4-.39-.59-.58-2.37-2.37-3.57-5.12-3.57-8.27,0-7.82,5.41-11.74,16.21-11.74h4.57v-.72c0-1.25-.24-2.05-.71-2.41-.47-.36-1.57-.54-3.28-.54-2.11,0-5.1.38-8.98,1.15-.84-1.3-1.44-2.46-1.83-3.49-.33-.88-.5-1.68-.5-2.37,0-1.51.47-2.48,1.41-2.92,3.16-1.2,7.5-1.8,13.01-1.8M209.17,131.3c1.02,0,1.95-.36,2.79-1.08v-5.54h-2.33c-2.66,0-3.99,1.13-3.99,3.38,0,1.06.33,1.86,1,2.41.66.55,1.51.83,2.54.83M211.08,97.23c-6.43,0-11.5.74-15.5,2.26-.14.05-.29.11-.43.18-1.65.76-5.5,3.18-5.5,9.28,0,1.54.31,3.11.94,4.81.11.3.24.61.37.92-5.9,4.33-6.8,10.84-6.8,14.39,0,4.97,1.94,9.54,5.61,13.22l.11.11c.24.24.49.49.75.72,4.08,3.68,9.1,5.54,14.91,5.54,4.41,0,8.23-.77,11.42-2.3,2.72,1.53,5.94,2.3,9.61,2.3,4.12,0,7.75-2.14,9.97-5.87.56-.94,1.03-1.94,1.44-3.06.66-1.83,1-3.67,1-5.48,0-2.9-.54-5.3-1.65-7.32-1.02-1.86-2.46-3.26-4.17-4.11v-5.34c0-3.2-.5-6.11-1.48-8.67-.93-2.42-2.28-4.52-4.02-6.22-3.67-3.6-9.1-5.35-16.59-5.35h0Z"/>
      </g>
      <g>
        <path class="cls-2" d="M247.18,145.17c-5.69,0-10.61,0-10.61-4.29v-20.22c-1.97-.48-4.82-2.23-4.82-8.29,0-.44.03-.9.08-1.41.16-1.51.56-3.03,1.21-4.52,1.42-3.39,4.1-5.28,7.54-5.28,2.53,0,4.99.58,7.32,1.73.84.41,1.58.83,2.21,1.26,3.39-1.98,7.09-2.99,11.05-2.99s7.39.88,10.22,2.63c3.12-1.75,6.7-2.63,10.69-2.63,9.55,0,13.69,4.74,15.48,8.72,1.15,2.56,1.74,5.67,1.74,9.25v21.89c0,3.51-3.79,3.78-5.03,3.87-1.28.09-3.1.13-5.58.13-5.34,0-9.4,0-10.38-2.71-.81,2.29-3.76,2.5-4.83,2.58-1.28.09-3.1.13-5.58.13-5.27,0-9.29,0-10.34-2.6-1.03,2.74-5.23,2.74-10.36,2.74ZM278.84,119.83"/>
        <path class="cls-3" d="M282.06,104.66c6.2,0,10.29,2.22,12.29,6.66.95,2.11,1.43,4.71,1.43,7.81v21.89c0,.34-2.37.5-7.11.5s-7.11-.22-7.11-.65v-20.95c0-2.4-.91-3.6-2.74-3.6-1,0-2.27.53-3.82,1.58v23.11c0,.34-2.37.5-7.11.5s-7.11-.22-7.11-.65v-20.95c0-2.4-.91-3.6-2.74-3.6-.94,0-2.19.53-3.74,1.58v23.04c0,.48-2.37.72-7.11.72s-7.11-.26-7.11-.79v-23.54h-2.08c-1.83,0-2.74-1.66-2.74-4.97,0-.35.02-.7.06-1.05.12-1.15.43-2.31.94-3.49.89-2.11,2.33-3.17,4.32-3.17s3.92.46,5.78,1.37c1.86.91,2.98,1.78,3.37,2.59,3.44-2.64,7.25-3.96,11.43-3.96s7.55,1.13,10.1,3.38c2.99-2.26,6.59-3.38,10.81-3.38M282.06,97.66c-3.87,0-7.42.73-10.62,2.18-3-1.45-6.44-2.18-10.29-2.18s-7.54.83-10.95,2.47c-.26-.14-.52-.27-.76-.39-2.82-1.38-5.8-2.09-8.87-2.09-4.85,0-8.77,2.7-10.76,7.42-.78,1.81-1.27,3.67-1.46,5.52-.06.62-.1,1.2-.1,1.77,0,6.09,2.4,9.08,4.82,10.55v17.96c0,1.11.39,6.7,8,7.55,1.46.16,3.45.24,6.11.24s4.6-.07,6.04-.22c1.86-.19,3.3-.65,4.41-1.26,1.09.56,2.5.98,4.29,1.15,1.41.13,3.36.19,5.97.19s4.47-.05,5.83-.14c.94-.07,1.67-.16,2.3-.29.91-.19,1.71-.5,2.4-.9,1.09.56,2.5.98,4.3,1.15,1.41.13,3.36.19,5.97.19s4.47-.05,5.83-.14c.94-.07,1.67-.16,2.3-.29,4.14-.88,5.99-4.18,5.99-7.07v-21.89c0-4.08-.69-7.67-2.05-10.69-1.81-4.03-6.65-10.78-18.67-10.78h0Z"/>
      </g>
      <g>
        <path class="cls-2" d="M310.98,145.17c-2.64,0-4.58-.04-5.94-.13-1.28-.08-5.17-.34-5.17-3.87v-35.35c0-3.53,3.76-3.78,5.17-3.87,1.36-.09,3.3-.13,5.94-.13s4.56.04,5.9.11c1.42.08,5.2.29,5.2,3.82v35.35c0,3.53-3.87,3.83-5.14,3.92-1.37.1-3.32.15-5.97.15Z"/>
        <path class="cls-3" d="M310.98,105.31c5.07,0,7.61.14,7.61.43v35.35c0,.38-2.54.58-7.61.58s-7.61-.17-7.61-.5v-35.35c0-.33,2.54-.5,7.61-.5M310.98,98.31c-2.71,0-4.73.05-6.17.14-.96.06-1.7.15-2.33.28-4.22.84-6.11,4.16-6.11,7.09v35.35c0,2.92,1.89,6.25,6.11,7.09.63.13,1.37.21,2.33.28,1.43.09,3.45.14,6.17.14s4.78-.05,6.23-.16c1-.08,1.78-.18,2.45-.33,4.09-.93,5.93-4.22,5.93-7.08v-35.35c0-2.99-1.95-6.35-6.3-7.09-.59-.1-1.29-.17-2.21-.22-1.41-.08-3.41-.12-6.1-.12h0Z"/>
      </g>
      <g>
        <path class="cls-2" d="M310.98,105.5c-2.63,0-4.56-.04-5.9-.11-1.42-.08-5.2-.29-5.2-3.82v-10.37c0-4.22,4.66-4.22,11.11-4.22,2.63,0,4.56.04,5.9.11,1.42.08,5.2.29,5.2,3.82v10.58c0,3.53-3.76,3.78-5.17,3.87-1.36.09-3.3.13-5.94.13Z"/>
        <path class="cls-3" d="M310.98,90.48c5.07,0,7.61.14,7.61.43v10.58c0,.34-2.54.5-7.61.5s-7.61-.14-7.61-.43v-10.37c0-.48,2.54-.72,7.61-.72M310.98,83.48c-2.78,0-4.86.07-6.37.21-7.65.72-8.24,5.93-8.24,7.51v10.37c0,2.99,1.95,6.35,6.3,7.09.59.1,1.29.17,2.21.22,1.41.08,3.41.12,6.1.12s4.73-.05,6.17-.14c.96-.06,1.7-.15,2.33-.28,4.22-.84,6.11-4.16,6.11-7.09v-10.58c0-2.99-1.95-6.35-6.3-7.09-.59-.1-1.29-.17-2.2-.22-1.41-.08-3.41-.12-6.1-.12h0Z"/>
      </g>
      <g>
        <path class="cls-2" d="M359.46,145.17c-5.46,0-10.61,0-10.61-4.36v-20.72s-.1.04-.15.06v20.88c0,1.58-.82,3.54-4.7,3.87-1.11.09-2.67.14-4.78.14-2.97-.08-5.09-.18-6.57-.32-1.57-.15-5.25-.5-5.25-3.97v-19.98c-1.72-.38-4.05-1.68-4.92-5.8,0-.03-.01-.07-.02-.1-.15-.82-.22-1.65-.22-2.49,0-.45.03-.91.08-1.41.16-1.51.57-3.02,1.22-4.48,1.61-3.4,4.39-5.24,7.85-5.24,2.67,0,5.11.57,7.27,1.69.8.41,1.5.84,2.12,1.28,3.54-1.97,7.58-2.97,12.06-2.97,5.79,0,10.17,1.5,13,4.46,2.84,2.96,4.21,7.38,4.21,13.51v21.6c0,4.36-5.15,4.36-10.61,4.36Z"/>
        <path class="cls-3" d="M352.85,104.73c4.82,0,8.31,1.13,10.48,3.38,2.16,2.26,3.24,5.95,3.24,11.09v21.6c0,.58-2.37.86-7.11.86s-7.11-.29-7.11-.86v-20.81c0-2.4-.97-3.6-2.91-3.6-.55,0-1.33.2-2.33.61-1,.41-1.64.71-1.91.9v23.11c0,.34-2,.5-5.99.5-5.54-.14-8.31-.41-8.31-.79v-23.33h-2.16c-1.44,0-2.38-1.06-2.83-3.17-.11-.62-.17-1.25-.17-1.87,0-.35.02-.7.06-1.05.12-1.14.43-2.28.94-3.42,1-2.11,2.55-3.17,4.66-3.17s3.99.43,5.65,1.3c1.66.86,2.77,1.73,3.33,2.59,3.49-2.59,7.65-3.89,12.47-3.89M352.85,97.73c-4.32,0-8.3.82-11.88,2.46-.22-.12-.45-.25-.69-.37-2.66-1.38-5.65-2.09-8.88-2.09-4.83,0-8.83,2.62-10.99,7.18-.02.04-.04.09-.06.13-.81,1.8-1.31,3.67-1.51,5.55-.06.62-.1,1.2-.1,1.77,0,1.04.09,2.09.28,3.11.01.07.03.13.04.2.79,3.76,2.66,6.1,4.84,7.41v17.65c0,2.84,1.83,6.12,5.93,7.08.67.16,1.46.27,2.49.37,1.56.15,3.75.26,6.72.34.06,0,.12,0,.18,0,2.21,0,3.87-.05,5.08-.15,1.99-.17,3.48-.68,4.6-1.37,1.09.66,2.52,1.17,4.39,1.4,1.48.18,3.5.27,6.18.27s4.7-.09,6.18-.27c7.55-.92,7.93-6.49,7.93-7.6v-21.6c0-6.98-1.75-12.34-5.19-15.93-3.52-3.68-8.75-5.54-15.53-5.54h0Z"/>
      </g>
      <g>
        <rect class="cls-4" x="410.32" y="118.56" width="153.25" height="23.11"/>
        <g>
          <path class="cls-2" d="M410.15,144.44c-6.86-.26-11-.42-11-4.43v-21.99h-.39c-3.33,0-5.03-2.85-5.03-8.47,0-1.05.1-2.24.3-3.66.64-4.52,3.66-4.88,4.57-4.88h.54v-2.84c0-4.94,6.47-4.94,9.95-4.94,3.96,0,9.95,0,9.95,4.65v3.12h3.06c4.8,0,4.8,6.2,4.8,8.54s0,8.54-4.8,8.54h-1.92v21.99c0,4.36-5.26,4.36-9.91,4.36-.04,0-.09,0-.13,0Z"/>
          <path class="cls-3" d="M409.1,96.74c4.3,0,6.45.38,6.45,1.15v4.61l.08,2.02h6.49c.86,0,1.3,1.68,1.3,5.04s-.43,5.04-1.3,5.04h-5.42v25.49c0,.58-2.14.86-6.41.86-5.09-.19-7.63-.5-7.63-.94v-25.49h-3.89c-1.02,0-1.53-1.66-1.53-4.97,0-.86.09-1.92.27-3.17.18-1.25.55-1.87,1.11-1.87h4.04v-6.34c0-.96,2.15-1.44,6.45-1.44M409.1,89.74c-2.73,0-4.75.17-6.36.53-5.18,1.16-7.06,4.79-7.09,7.84-2.34.97-4.5,3.2-5.08,7.3-.23,1.58-.34,2.94-.34,4.15,0,2.41.22,4.25.69,5.78.92,2.99,2.76,4.71,4.73,5.55v19.13c0,1.96.78,6.61,8.06,7.51,1.48.18,3.54.32,6.31.43.09,0,.18,0,.26,0,2.47,0,4.35-.09,5.74-.28,7.3-.98,7.67-6.49,7.67-7.58v-18.66c2.48-.54,5.16-2.4,6.17-6.34.37-1.45.55-3.2.55-5.52s-.17-4.08-.55-5.52c-1.18-4.57-4.59-6.34-7.33-6.5-.1-1.6-.94-6.24-7.37-7.39-1.52-.27-3.45-.4-6.07-.4h0Z"/>
        </g>
        <g>
          <path class="cls-2" d="M442.79,143.65c-6.9-.14-10.37-.22-10.37-4.07v-20.6c-1.51-.42-2.79-1.5-3.62-3.11-.74-1.43-1.11-3.14-1.11-5.1,0-10.18,5.86-11.28,8.38-11.28,3.14,0,5.84.95,8.01,2.83.27.24.53.48.76.72.52-.44,1.06-.85,1.64-1.22,2.37-1.55,4.88-2.33,7.44-2.33,4.47,0,7.36,1.45,8.56,4.29.35.88.51,1.86.51,3.06,0,1.07-.26,2.57-.83,4.85-.57,2.26-1.18,3.93-1.86,5.09-.8,1.35-1.78,3.02-3.93,3.02-.8,0-1.4-.23-2.79-.82-.09-.04-.17-.07-.24-.1-.02.18-.03.4-.03.66v20.09c0,2.33-1.68,3.63-4.98,3.87-1.25.09-3.04.13-5.46.13-.02,0-.05,0-.07,0Z"/>
          <path class="cls-3" d="M453.93,103c2.95,0,4.73.72,5.34,2.16.15.38.23.95.23,1.69s-.24,2.08-.73,4c-.48,1.92-.98,3.31-1.49,4.18-.51.86-.81,1.3-.92,1.3s-.57-.18-1.41-.54c-.84-.36-1.59-.54-2.25-.54-1.93,0-2.9,1.44-2.9,4.32v20.09c0,.34-2.32.5-6.94.5-4.63-.1-6.94-.29-6.94-.58v-23.9h-2.06c-.81,0-1.46-.47-1.95-1.4-.48-.94-.72-2.1-.72-3.49,0-5.18,1.63-7.78,4.88-7.78,2.29,0,4.2.66,5.72,1.98,1.53,1.32,2.29,2.82,2.29,4.5,1.07-1.97,2.5-3.54,4.31-4.72,1.81-1.18,3.65-1.76,5.53-1.76M453.93,96c-3.1,0-6.1.88-8.93,2.63-2.55-1.73-5.6-2.63-8.93-2.63-1.98,0-11.88.71-11.88,14.78,0,2.52.51,4.78,1.51,6.71.8,1.55,1.91,2.79,3.22,3.68v18.41c0,2.89,1.86,6.19,6.02,7.05.58.12,1.26.21,2.14.28,1.31.11,3.16.19,5.64.24.05,0,.1,0,.15,0,2.51,0,4.38-.05,5.71-.14,7.64-.55,8.23-5.77,8.23-7.36v-16.34c3.85-.21,5.64-3.25,6.51-4.73.87-1.48,1.58-3.39,2.24-6.02.66-2.61.94-4.31.94-5.7,0-1.65-.24-3.05-.73-4.28-.02-.05-.04-.09-.06-.14-1.02-2.4-3.9-6.43-11.79-6.43h0ZM456.83,119.16h0Z"/>
        </g>
        <g>
          <path class="cls-2" d="M474.26,144.12c-2.44,0-4.23-.04-5.49-.13-1.24-.09-4.99-.36-4.99-3.87v-35.35c0-.91.25-1.6.65-2.13-.4-.52-.65-1.21-.65-2.12v-10.37c0-4.22,4.63-4.22,10.48-4.22,2.42,0,4.21.04,5.45.11,1.24.08,5.03.31,5.03,3.82v10.58c0,.91-.25,1.6-.65,2.13.4.52.65,1.21.65,2.12v35.35c0,4.08-4.17,4.08-10.48,4.08Z"/>
          <path class="cls-3" d="M474.26,89.43c4.65,0,6.98.14,6.98.43v10.58c0,.34-2.33.5-6.98.5s-6.98-.14-6.98-.43v-10.37c0-.48,2.33-.72,6.98-.72M474.26,104.26c4.65,0,6.98.14,6.98.43v35.35c0,.38-2.33.58-6.98.58s-6.98-.17-6.98-.5v-35.35c0-.33,2.33-.5,6.98-.5M474.26,82.43c-2.59,0-4.54.07-5.96.22-7.64.79-8.03,6.39-8.03,7.5v10.37c0,.69.11,1.41.32,2.11-.27.89-.32,1.67-.32,2.14v35.35c0,1.59.59,6.81,8.24,7.36,1.34.1,3.22.14,5.74.14s4.45-.05,5.81-.17c7.58-.62,8.17-5.83,8.17-7.41v-35.35c0-.69-.11-1.41-.32-2.11.27-.89.32-1.67.32-2.14v-10.58c0-2.95-1.9-6.28-6.16-7.07-.58-.11-1.27-.18-2.15-.24-1.32-.08-3.17-.12-5.67-.12h0Z"/>
        </g>
        <g>
          <path class="cls-2" d="M520.93,144.23c-4.28,0-8.68,0-9.77-2.85-.85,2.71-4.58,2.71-8.81,2.71-7.21-.2-11.13-.31-11.13-4.29v-20.03c-1.64-.45-3.75-1.82-4.52-5.8-.15-.89-.22-1.72-.22-2.53,0-1.94.4-3.89,1.18-5.79,2.02-4.65,5.57-5.34,7.51-5.34,2.54,0,4.86.59,6.91,1.75.64.36,1.22.73,1.73,1.11,3.25-1.9,6.95-2.86,11.04-2.86,5.46,0,9.57,1.54,12.24,4.57,2.59,2.94,3.85,7.33,3.85,13.4v21.6c0,4.36-5.1,4.36-10.02,4.36Z"/>
          <path class="cls-3" d="M514.86,103.8c4.43,0,7.63,1.13,9.62,3.38,1.98,2.26,2.98,5.95,2.98,11.09v21.6c0,.58-2.17.86-6.52.86s-6.52-.29-6.52-.86v-20.81c0-2.4-.89-3.6-2.67-3.6-.51,0-1.22.2-2.14.61-.92.41-1.5.71-1.76.9v23.11c0,.34-1.83.5-5.49.5-5.09-.14-7.63-.41-7.63-.79v-23.33h-1.98c-1.32,0-2.19-1.06-2.59-3.17-.1-.62-.15-1.25-.15-1.87,0-1.49.3-2.98.92-4.46.92-2.11,2.34-3.17,4.27-3.17s3.66.43,5.19,1.3c1.53.86,2.54,1.73,3.05,2.59,3.2-2.59,7.02-3.89,11.45-3.89M514.86,96.8c-3.94,0-7.57.78-10.86,2.31-.06-.04-.13-.07-.19-.11-2.59-1.46-5.49-2.21-8.64-2.21-4.76,0-8.66,2.69-10.7,7.38-.02.04-.04.09-.05.13-.95,2.33-1.44,4.72-1.44,7.12,0,1.01.08,2.02.24,3.01.01.06.02.13.03.19.71,3.66,2.42,6,4.45,7.34v17.83c0,1.98.8,6.68,8.19,7.45,1.46.15,3.5.26,6.25.34.07,0,.13,0,.2,0,2.06,0,3.62-.05,4.76-.16,1.74-.16,3.08-.59,4.13-1.17,1.01.55,2.28.98,3.88,1.19,1.41.19,3.31.28,5.81.28s4.41-.09,5.81-.28c7.34-.97,7.71-6.49,7.71-7.59v-21.6c0-6.96-1.54-12.1-4.72-15.71-3.36-3.82-8.37-5.76-14.87-5.76h0Z"/>
        </g>
        <g>
          <path class="cls-2" d="M542.57,144.16c-4.17,0-9.87,0-9.87-4.51v-49.32c0-3.7,4.17-4.08,5.55-4.21,1.7-.16,3.1-.23,4.29-.23,3.71,0,9.91,0,9.91,4.8v9.97c1.14-.2,2.13-.3,2.99-.3,4.71,0,8.57,1.27,11.45,3.77,3.07,2.67,4.56,7.08,4.56,13.48v22.32c0,4.15-4.59,4.15-9.45,4.15-.04,0-.08,0-.11,0-5.16-.17-8.65-.28-9.74-2.46-1.1,2.53-5.08,2.53-9.57,2.53Z"/>
          <path class="cls-3" d="M542.53,89.4c4.27,0,6.41.43,6.41,1.3v14.4c2.85-.82,5.01-1.22,6.49-1.22,3.87,0,6.92.97,9.16,2.92,2.24,1.94,3.36,5.56,3.36,10.84v22.32c0,.43-1.98.65-5.95.65-4.48-.14-6.72-.38-6.72-.72v-21.17c0-2.35-.81-3.53-2.44-3.53-1.12,0-2.42.5-3.89,1.51v23.33c0,.43-2.12.65-6.37.65s-6.37-.33-6.37-1.01v-49.32c0-.34.79-.58,2.36-.72,1.58-.14,2.9-.22,3.97-.22M542.53,82.4c-1.29,0-2.8.08-4.6.24-7.88.72-8.73,5.62-8.73,7.69v49.32c0,1.08.36,6.54,7.5,7.67,1.46.23,3.32.34,5.87.34,2.38,0,4.18-.06,5.49-.2,1.79-.18,3.18-.64,4.25-1.24,1.02.5,2.3.87,3.9,1.04,1.3.14,3.12.25,5.56.32.08,0,.15,0,.23,0,2.26,0,3.97-.07,5.22-.2,7.36-.8,7.73-6.34,7.73-7.45v-22.32c0-7.48-1.89-12.75-5.77-16.12-3.43-2.98-7.88-4.53-13.24-4.63v-6.18c0-1.06-.35-6.45-7.22-7.83-1.56-.32-3.53-.46-6.19-.46h0Z"/>
        </g>
      </g>
      <g>
        <path class="cls-2" d="M99.84,145.17c-5.93,0-11.1-1.71-15.37-5.08l-.19-.15c-.2-.15-.4-.31-.6-.48-4.56-3.92-6.87-9.34-6.87-16.12,0-5.55,1.54-10.32,4.56-14.19.68-.86,1.3-1.56,1.95-2.19,4.29-4.14,9.74-6.24,16.19-6.24s11.4,1.5,15.05,4.45c1.57,1.27,2.85,2.73,3.82,4.34,1.33,2.23,2.01,4.69,2.01,7.31,0,3.39-.88,8.14-5.12,11.42.23.31.43.63.61.92,1.68,2.6,2.52,4.93,2.52,7.06,0,.69-.09,1.36-.28,2.03-.5,1.8-1.67,3.18-3.32,3.91-3.96,1.98-8.98,2.99-14.95,2.99ZM100.4,117.13"/>
        <path class="cls-3" d="M99.5,104.23c5.54,0,9.82,1.22,12.85,3.67,1.28,1.04,2.28,2.18,3.02,3.42,1,1.66,1.51,3.5,1.51,5.51,0,7.78-5.15,11.66-15.46,11.66h-5.74c0,1.44.46,2.44,1.37,2.99s2.26.83,4.03.83c3.88,0,7.57-.77,11.06-2.3,0,0,0,0,.01,0,.07,0,.32.34.74,1.01,1.33,2.06,2,3.8,2,5.22,0,.42-.06.78-.15,1.11-.22.79-.69,1.36-1.43,1.66-3.49,1.78-7.98,2.66-13.47,2.66-5.17,0-9.56-1.45-13.2-4.33-.23-.18-.46-.34-.68-.53-3.77-3.24-5.65-7.73-5.65-13.46,0-4.79,1.28-8.79,3.82-12.03.5-.64,1.03-1.26,1.63-1.83,3.63-3.5,8.22-5.26,13.76-5.26M95.68,120.64h4.49c1.83,0,2.74-.82,2.74-2.45,0-2.02-1.14-3.02-3.41-3.02-1.05,0-1.95.28-2.7.83-.75.55-1.12,1.36-1.12,2.41v2.23M99.5,97.23c-7.39,0-13.66,2.43-18.62,7.22-.77.75-1.5,1.56-2.28,2.55-3.52,4.5-5.31,9.99-5.31,16.34,0,7.73,2.8,14.22,8.09,18.77.25.22.51.42.77.62l.14.11c4.91,3.87,10.81,5.83,17.54,5.83s12.01-1.12,16.44-3.32c2.59-1.17,4.43-3.34,5.2-6.14.27-.99.4-1.96.4-2.97,0-2.33-.7-4.76-2.13-7.36,3.52-4.09,4.12-9.09,4.12-12.04,0-3.27-.84-6.33-2.51-9.11-1.17-1.96-2.72-3.73-4.61-5.26-4.29-3.47-10.09-5.23-17.25-5.23h0Z"/>
      </g>
      <g>
        <path class="cls-2" d="M56.38,146c-7.17,0-13.27-1.45-18.11-4.3-1.07-.63-1.72-1.78-1.72-3.02v-47.09c0-4.36,5.19-4.36,10.69-4.36s10.69,0,10.69,4.44v9.97c.61-.05,1.13-.08,1.57-.08,8.74,0,14.87,2.98,18.21,8.86,1.82,3.2,2.75,7.24,2.75,11.99,0,7.38-2.16,13.23-6.42,17.38-.38.37-.79.71-1.2,1.05-4.19,3.44-9.71,5.17-16.46,5.17ZM57.93,126.88c.19-.53.4-1.49.4-3.17,0-.79-.05-2.29-.4-3.18v6.35Z"/>
        <path class="cls-3" d="M47.24,90.74c4.79,0,7.19.31,7.19.94v13.97c2.38-.38,4.07-.58,5.07-.58,7.43,0,12.48,2.37,15.17,7.09,1.52,2.67,2.29,6.08,2.29,10.26,0,6.43-1.79,11.39-5.36,14.87-.33.32-.68.6-1.03.89-3.5,2.87-8.22,4.33-14.18,4.33-6.57,0-12.01-1.27-16.34-3.82v-47.09c0-.58,2.4-.86,7.19-.86M56.88,131.27c.86,0,1.73-.29,2.62-.86,1.55-.96,2.33-3.19,2.33-6.7,0-4.94-1.55-7.42-4.66-7.42-.94,0-1.86.26-2.74.79v13.75c.78.29,1.59.43,2.45.43M47.24,83.74c-2.7,0-4.74.09-6.23.27-7.58.91-7.96,6.49-7.96,7.6v47.09c0,2.48,1.31,4.77,3.45,6.03,5.39,3.17,12.08,4.78,19.89,4.78s13.85-1.99,18.63-5.92l.05-.04c.4-.33.9-.74,1.42-1.24,4.96-4.83,7.48-11.52,7.48-19.88,0-5.37-1.08-9.99-3.21-13.73-2.61-4.59-8.07-10.02-19.32-10.58v-6.44c0-1.1-.38-6.66-7.89-7.64-1.51-.2-3.57-.29-6.3-.29h0Z"/>
      </g>
    </g>
  </g>
</svg>