<?xml version="1.0" encoding="UTF-8"?>
<svg xmlns="http://www.w3.org/2000/svg" viewBox="0 0 600 250">
  <defs>
    <style>
      .cls-1 {
        fill: blue;
      }

      .cls-2 {
        fill: #feca75;
        stroke: blue;
        stroke-miterlimit: 10;
        stroke-width: 2px;
      }

      .cls-3 {
        fill: #f15a24;
      }

      .cls-4 {
        fill: none;
        stroke: #f15a24;
        stroke-linecap: square;
        stroke-linejoin: bevel;
        stroke-width: 9px;
      }
    </style>
  </defs>
  <g id="_Layer_" data-name="&amp;lt;Layer&amp;gt;">
    <rect class="cls-3" x="91.58" y="54.38" width="13.62" height="13.62"/>
    <line class="cls-4" x1="388.35" y1="38.7" x2="459.97" y2="49.97"/>
    <rect class="cls-3" x="481.95" y="18.16" width="24.08" height="24.08" transform="translate(123.33 358.14) rotate(-45)"/>
    <line class="cls-4" x1="176.47" y1="201.45" x2="265.69" y2="215.49"/>
    <rect class="cls-3" x="113.5" y="201.11" width="24.08" height="24.08" transform="translate(-113.95 151.2) rotate(-45)"/>
    <rect class="cls-3" x="403.44" y="194.62" width="18.83" height="18.83"/>
    <rect class="cls-3" x="458.18" y="185.76" width="13.62" height="13.62"/>
  </g>
  <g id="Layer_1-2" data-name="Layer 1">
    <g>
      <path class="cls-1" d="M30.56,95.98h22.36c4.01,0,7.02.49,9.04,1.48,2.02.98,3.68,2.39,4.99,4.22s1.97,4.05,1.97,6.67c0,5.32-2.88,8.86-8.65,10.64,3.33.75,5.82,2.24,7.49,4.47,1.66,2.23,2.5,4.66,2.5,7.28,0,3.59-1.36,6.69-4.08,9.3-2.72,2.62-7.14,3.92-13.25,3.92h-22.36v-47.99ZM41.78,104.45v10.51h8.51c3.12,0,5.08-.62,5.89-1.85s1.21-2.41,1.21-3.53c0-1.22-.33-2.27-1-3.15s-1.4-1.43-2.2-1.65c-.8-.22-2.37-.33-4.71-.33h-7.7ZM41.78,123.51v11.57h8.63c2.95,0,5.03-.51,6.25-1.55,1.22-1.03,1.82-2.47,1.82-4.32,0-1.55-.58-2.88-1.75-4.01-1.17-1.12-3.11-1.69-5.82-1.69h-9.12Z"/>
      <path class="cls-1" d="M111.74,105.12h-22.85v9.84h17.96v9.04h-17.96v10.48h22.85v9.49h-34.28v-47.99h34.28v9.14Z"/>
      <path class="cls-1" d="M155.4,95.98v47.99h-9.59l-18.78-32.41c.02.82.05,1.36.07,1.62.09.82.14,1.51.14,2.07v28.72h-8.75v-47.99h12.12l16.33,28.3c-.14-1.41-.21-2.47-.21-3.2v-25.1h8.68Z"/>
      <path class="cls-1" d="M183.32,95.98v34.24c0,4.88-1.17,8.51-3.5,10.9s-6.17,3.59-11.51,3.59c-2.34,0-4.88-.25-7.59-.74v-9.32c2.23.38,4.14.56,5.73.56,1.41,0,2.51-.25,3.32-.76.81-.5,1.4-1.12,1.78-1.85.38-.73.56-1.99.56-3.8v-32.84h11.21Z"/>
      <path class="cls-1" d="M214.95,95.98l15.02,47.99h-12.08l-2.96-9.88h-15.52l-3.01,9.88h-9.86l15.38-47.99h13.01ZM202.11,125.23h10.17l-5.04-16.84-5.13,16.84Z"/>
      <path class="cls-1" d="M256.4,143.97l-11.84-39.13v39.13h-9.42v-47.99h17.5l8.42,28.72,8.86-28.72h17.56v47.99h-11.32v-39.13l-12.07,39.13h-7.69Z"/>
      <path class="cls-1" d="M308.26,95.98v47.99h-11.21v-47.99h11.21Z"/>
      <path class="cls-1" d="M354.81,95.98v47.99h-9.59l-18.78-32.41c.02.82.05,1.36.07,1.62.09.82.14,1.51.14,2.07v28.72h-8.75v-47.99h12.12l16.33,28.3c-.14-1.41-.21-2.47-.21-3.2v-25.1h8.68Z"/>
      <path class="cls-2" d="M412.85,95.98v9.49h-11.88v38.5h-11.39v-38.5h-11.95v-9.49h35.23Z"/>
      <path class="cls-2" d="M428.99,124.95v19.02h-11.32v-47.99h21.09c3.89,0,7.01.45,9.37,1.35,2.36.9,4.31,2.56,5.85,4.97,1.55,2.41,2.32,5.09,2.32,8.05,0,5.76-2.78,9.9-8.33,12.4l8.86,21.22h-12.42l-7.37-19.02h-8.05ZM428.99,104.52v12.23h6.89c2.25,0,3.88-.16,4.9-.47s1.93-1.02,2.72-2.11,1.2-2.34,1.2-3.74-.4-2.53-1.2-3.59-1.66-1.71-2.6-1.95-2.7-.37-5.27-.37h-6.64Z"/>
      <path class="cls-2" d="M476.2,95.98v47.99h-11.21v-47.99h11.21Z"/>
      <path class="cls-2" d="M522.75,95.98v47.99h-9.59l-18.78-32.41c.02.82.05,1.36.07,1.62.09.82.14,1.51.14,2.07v28.72h-8.75v-47.99h12.12l16.33,28.3c-.14-1.41-.21-2.47-.21-3.2v-25.1h8.68Z"/>
      <path class="cls-2" d="M569.44,95.98v47.99h-11.04v-19.79h-14.98v19.79h-11.04v-47.99h11.04v18.7h14.98v-18.7h11.04Z"/>
    </g>
  </g>
</svg>